<?xml version="1.0" encoding="UTF-8" standalone="no"?>
<svg width="170" height="170" viewBox="0 0 170 170" fill="none" xmlns="http://www.w3.org/2000/svg">
<circle cx="85" cy="85" r="85" fill="#ffd6eb"/>
<ellipse cx="41" cy="46" rx="27" ry="24" fill="#f186b5"/>
<ellipse cx="129" cy="45" rx="27" ry="24" fill="#f186b5"/>
<ellipse cx="85" cy="100" rx="56" ry="54" fill="#ffd6eb" stroke="#f186b5" stroke-width="6"/>
<ellipse cx="85" cy="120" rx="34" ry="20" fill="#f186b5"/>
<ellipse cx="85" cy="110" rx="20" ry="14" fill="#fff"/>
<ellipse cx="60" cy="74" rx="13" ry="15" fill="#fff"/>
<ellipse cx="110" cy="74" rx="13" ry="15" fill="#fff"/>
<ellipse cx="60" cy="77" rx="7" ry="6" fill="#f186b5"/>
<ellipse cx="110" cy="77" rx="7" ry="6" fill="#f186b5"/>
<ellipse cx="85" cy="96" rx="8" ry="6" fill="#f186b5"/>
<circle cx="75" cy="80" r="2.3" fill="#3c2d31"/>
<circle cx="95" cy="80" r="2.3" fill="#3c2d31"/>
<ellipse cx="85" cy="115" rx="8" ry="4" fill="#fff"/>
<ellipse cx="125" cy="142" rx="18" ry="10" fill="#f186b5" opacity=".42"/>
<ellipse cx="44" cy="142" rx="18" ry="10" fill="#f186b5" opacity=".42"/>
</svg>
